# xmcd CD database file
#
# Track frame offsets:
#	182
#	14770
#	28522
#	38862
#	54325
#	67372
#	84605
#	96420
#	113275
#	126097
#	140207
#	158687
#	170640
#	183455
#	195400
#	212265
#	225167
#	234702
#
# Disc length: 3354 seconds
#
# Revision: 1
# Processed by: cddbd v1.5.1PL2 Copyright (c) Steve Scherf et al.
# Submitted via: CDex 1.51
#
DISCID=f30d1812
DTITLE=Glen Campbell - Country Classics (RD) Cd 3 [Golden Romantic Favourites]
DYEAR=1900
DGENRE=Country
TTITLE0=All The Way
TTITLE1=Love Story
TTITLE2=Without Her
TTITLE3=Bridge Over Troubled Water
TTITLE4=You'll Never Walk Alone
TTITLE5=If You Go Away
TTITLE6=Twelfth Of Never
TTITLE7=Yesterday When I Was Young
TTITLE8=The Impossible Dream
TTITLE9=Until It's Time For You To Go
TTITLE10=My Way
TTITLE11=You're My World
TTITLE12=Rose Garden
TTITLE13=United We Stand (With Anne Murray)
TTITLE14=Both Sides Now
TTITLE15=I'll Hold You In My Heart
TTITLE16=Let It Be Me (With Bobbie Gentry)
TTITLE17=If You Could Read My Mind
EXTD=
EXTT0=
EXTT1=
EXTT2=
EXTT3=
EXTT4=
EXTT5=
EXTT6=
EXTT7=
EXTT8=
EXTT9=
EXTT10=
EXTT11=
EXTT12=
EXTT13=
EXTT14=
EXTT15=
EXTT16=
EXTT17=
PLAYORDER=
